<mxfile host="app.diagrams.net" agent="Mozilla/5.0 (Windows NT 10.0; Win64; x64) AppleWebKit/537.36 (KHTML, like Gecko) Chrome/141.0.0.0 Safari/537.36" version="28.2.8">
  <diagram id="bai1" name="Bai1_DatVeXemPhim">
    <mxGraphModel dx="1601" dy="701" grid="0" gridSize="10" guides="1" tooltips="1" connect="1" arrows="1" fold="1" page="1" pageScale="1" pageWidth="1169" pageHeight="827" math="0" shadow="0">
      <root>
        <mxCell id="0" />
        <mxCell id="1" parent="0" />
        <mxCell id="actor_user" value="Người dùng" style="shape=umlActor;verticalLabelPosition=bottom;verticalAlign=top;html=1;" parent="1" vertex="1">
          <mxGeometry x="80" y="300" width="60" height="100" as="geometry" />
        </mxCell>
        <mxCell id="sysBoundary" value="" style="shape=rectangle;whiteSpace=wrap;html=1;strokeWidth=2;rounded=0;" parent="1" vertex="1">
          <mxGeometry x="216" y="155" width="800" height="480" as="geometry" />
        </mxCell>
        <mxCell id="sysTitle" value="Hệ thống đặt vé xem phim online" style="text;html=1;align=center;verticalAlign=middle;whiteSpace=wrap;rounded=0;" parent="sysBoundary" vertex="1">
          <mxGeometry x="250" y="20" width="260" height="30" as="geometry" />
        </mxCell>
        <mxCell id="uc_dat_cho" value="Đặt chỗ" style="ellipse;whiteSpace=wrap;html=1;aspect=fixed;" parent="sysBoundary" vertex="1">
          <mxGeometry x="208" y="152" width="112" height="56" as="geometry" />
        </mxCell>
        <mxCell id="uc_chon_ghe" value="Chọn ghế" style="ellipse;whiteSpace=wrap;html=1;aspect=fixed;" parent="sysBoundary" vertex="1">
          <mxGeometry x="205.15" y="245" width="110" height="55" as="geometry" />
        </mxCell>
        <mxCell id="uc_thanh_toan" value="Thanh toán" style="ellipse;whiteSpace=wrap;html=1;aspect=fixed;" parent="sysBoundary" vertex="1">
          <mxGeometry x="210.15" y="325" width="100" height="50" as="geometry" />
        </mxCell>
        <mxCell id="uc_huy_ve" value="Hủy vé" style="ellipse;whiteSpace=wrap;html=1;aspect=fixed;" parent="sysBoundary" vertex="1">
          <mxGeometry x="216" y="413" width="96" height="48" as="geometry" />
        </mxCell>
        <mxCell id="uc_xem_phim" value="Xem danh sách phim" style="ellipse;whiteSpace=wrap;html=1;aspect=fixed;" parent="sysBoundary" vertex="1">
          <mxGeometry x="195" y="50" width="130.29" height="57" as="geometry" />
        </mxCell>
        <mxCell id="uc_xem_suat_chieu" value="Xem suất chiếu" style="ellipse;whiteSpace=wrap;html=1;aspect=fixed;" parent="sysBoundary" vertex="1">
          <mxGeometry x="406" y="76" width="114.29" height="50" as="geometry" />
        </mxCell>
        <mxCell id="uc_xac_nhan" value="Xác nhận đặt chỗ" style="ellipse;whiteSpace=wrap;html=1;aspect=fixed;" parent="sysBoundary" vertex="1">
          <mxGeometry x="422" y="168" width="114" height="57" as="geometry" />
        </mxCell>
        <mxCell id="uc_kiem_tra_ghe" value="Kiểm tra ghế trống" style="ellipse;whiteSpace=wrap;html=1;aspect=fixed;" parent="sysBoundary" vertex="1">
          <mxGeometry x="433" y="259" width="100" height="50" as="geometry" />
        </mxCell>
        <mxCell id="uc_gui_email" value="Gửi email xác nhận" style="ellipse;whiteSpace=wrap;html=1;aspect=fixed;" parent="sysBoundary" vertex="1">
          <mxGeometry x="467" y="338" width="114" height="57" as="geometry" />
        </mxCell>
        <mxCell id="extend_xem_suat_chieu" value="«extend»" style="endArrow=open;dashed=1;html=1;fontSize=12;labelBackgroundColor=#ffffff;exitX=0;exitY=0.5;exitDx=0;exitDy=0;entryX=1;entryY=0.5;entryDx=0;entryDy=0;entryPerimeter=0;" parent="sysBoundary" source="uc_xem_suat_chieu" target="uc_dat_cho" edge="1">
          <mxGeometry width="160" relative="1" as="geometry">
            <mxPoint x="380" y="335" as="sourcePoint" />
            <mxPoint x="540" y="335" as="targetPoint" />
            <mxPoint y="-10" as="offset" />
          </mxGeometry>
        </mxCell>
        <mxCell id="include_xac_nhan" value="«include»" style="endArrow=open;dashed=1;html=1;fontSize=12;labelBackgroundColor=#ffffff;exitX=1;exitY=0.5;exitDx=0;exitDy=0;entryX=0;entryY=0.5;entryDx=0;entryDy=0;entryPerimeter=0;" parent="sysBoundary" source="uc_dat_cho" target="uc_xac_nhan" edge="1">
          <mxGeometry width="160" relative="1" as="geometry">
            <mxPoint x="380" y="215" as="sourcePoint" />
            <mxPoint x="540" y="215" as="targetPoint" />
            <mxPoint y="-10" as="offset" />
          </mxGeometry>
        </mxCell>
        <mxCell id="include_kiem_tra_ghe" value="«include»" style="endArrow=open;dashed=1;html=1;fontSize=12;labelBackgroundColor=#ffffff;exitX=1;exitY=0.5;exitDx=0;exitDy=0;entryX=0;entryY=0.5;entryDx=0;entryDy=0;entryPerimeter=0;" parent="sysBoundary" source="uc_chon_ghe" target="uc_kiem_tra_ghe" edge="1">
          <mxGeometry width="160" relative="1" as="geometry">
            <mxPoint x="380" y="335" as="sourcePoint" />
            <mxPoint x="540" y="335" as="targetPoint" />
            <mxPoint y="-10" as="offset" />
          </mxGeometry>
        </mxCell>
        <mxCell id="include_gui_email" value="«include»" style="endArrow=open;dashed=1;html=1;fontSize=12;labelBackgroundColor=#ffffff;exitX=1;exitY=0.5;exitDx=0;exitDy=0;entryX=0;entryY=0.5;entryDx=0;entryDy=0;entryPerimeter=0;" parent="sysBoundary" source="uc_thanh_toan" target="uc_gui_email" edge="1">
          <mxGeometry width="160" relative="1" as="geometry">
            <mxPoint x="380" y="455" as="sourcePoint" />
            <mxPoint x="540" y="455" as="targetPoint" />
            <mxPoint y="-10" as="offset" />
          </mxGeometry>
        </mxCell>
        <mxCell id="extend_xem_phim" value="«extend»" style="endArrow=open;dashed=1;html=1;fontSize=12;labelBackgroundColor=#ffffff;entryX=0;entryDx=0;entryDy=0;entryPerimeter=0;" parent="sysBoundary" source="uc_xem_phim" target="uc_dat_cho" edge="1">
          <mxGeometry width="160" relative="1" as="geometry">
            <mxPoint x="268" y="122" as="sourcePoint" />
            <mxPoint x="540" y="215" as="targetPoint" />
            <mxPoint y="-10" as="offset" />
          </mxGeometry>
        </mxCell>
        <mxCell id="assoc_user_dat_cho" style="endArrow=none;html=1;" parent="1" source="actor_user" target="uc_dat_cho" edge="1">
          <mxGeometry relative="1" as="geometry" />
        </mxCell>
        <mxCell id="assoc_user_chon_ghe" style="endArrow=none;html=1;" parent="1" source="actor_user" target="uc_chon_ghe" edge="1">
          <mxGeometry relative="1" as="geometry" />
        </mxCell>
        <mxCell id="assoc_user_thanh_toan" style="endArrow=none;html=1;" parent="1" source="actor_user" target="uc_thanh_toan" edge="1">
          <mxGeometry relative="1" as="geometry" />
        </mxCell>
        <mxCell id="assoc_user_huy_ve" style="endArrow=none;html=1;" parent="1" source="actor_user" target="uc_huy_ve" edge="1">
          <mxGeometry relative="1" as="geometry" />
        </mxCell>
        <mxCell id="assoc_user_xem_phim" style="endArrow=none;html=1;" parent="1" source="actor_user" target="uc_xem_phim" edge="1">
          <mxGeometry relative="1" as="geometry" />
        </mxCell>
      </root>
    </mxGraphModel>
  </diagram>
</mxfile>
